Patient4_TMGait_0pt7_01_left_41_EMG.mot
version=1
nRows=20
nColumns=33
inDegrees=no
endheader
time	1LAddLong	2LGlutMax	3LGlutMed	4LIliopsoas	5LSemiMemb	6LBicFemLong	7LRecFem	8LVastMed	9LVastLat	10LGasMed	11LTibAnt	12lTibPost	13LPeroneusLong	14LSol	15LExtDigLong	16LFlexDigLong	17RAddLong	18RGlutMax	19RGlutMed	20RIliopsoas	21RSemiMemb	22RBicFemLong	23RRecFem	24RVastMed	25RVastLat	26RGasMed	27RTibAnt	28RTibPost	29RPeroneusLong	30RSol	31RExtDigLong	32RFlexDigLong
48.685	0.00885	0.12726	-0.11276	0.001221	-0.066833	-0.038147	-0.002289	0.013428	0.025635	-0.003357	0.018463	-0.006104	0.019836	-0.052185	-0.010529	0.005493	-0.051117	-0.2446	-0.78888	-0.035248	0.022888	0.16419	0.005341	0.059052	0.038147	-0.046997	-0.08194	0.010529	-0.028992	0.84488	0.000305	-0.019836
48.686	0.010071	0.12009	-0.19318	0.01236	0.010986	-0.041046	-0.004578	0.010681	0.030975	-0.005798	0.015717	0.008698	0.019989	0.04303	-0.002594	-0.001526	-0.010834	-0.19974	-0.495	-0.063324	0.096893	0.091858	-0.054626	0.21423	0.64453	-0.033875	0.071564	-0.003052	0.014038	1.2341	-0.002441	-0.004883
48.687	0.009613	0.088348	-0.22263	0.005341	0.052948	-0.002136	-0.008087	0.009003	0.022278	-0.007629	0.024872	-0.002899	0.066528	0.071869	-0.003967	0.017242	0.023499	-0.18463	0.39978	-0.087738	0.02594	0.019989	0.34897	0.097351	0.70374	0.011444	0.18417	0.00412	0.18051	1.5031	-0.000916	-0.001221
48.688	0.018463	0.063019	-0.12543	0.003357	0.029755	0.021515	-0.035553	0.001831	0.022583	-0.011902	0.012817	-0.006866	0.021973	0.072632	0.002747	0.043488	0.040283	-0.15091	1.122	-0.088348	0.045776	0.027008	0.62714	-0.028687	0.569	0.023804	1.1017	0.005493	0.34134	1.0165	0.001526	-0.002441
48.689	0.015259	0.056305	0.031586	0.001678	-0.012207	0.035706	-0.012512	0.007019	0.023041	-0.022278	0.02533	-0.00473	-0.036926	0.010681	0.005341	0.049591	0.014038	-0.15656	0.73547	-0.012054	0.026703	0.019989	0.4718	-0.13504	0.37109	0.000916	1.8793	0.00412	0.15701	0.45166	-0.001831	0.000153
48.69	0.020447	0.035095	0.11749	0.005035	-0.036163	0.02594	-0.01358	0.004425	0.020447	-0.032196	0.021515	0.001984	-0.001373	-0.042267	-0.009918	-0.40466	0.005951	-0.15961	0.097656	0.16159	-0.04364	0.00885	-0.15945	-0.31326	0.25421	0.001831	1.046	0.000916	0.11368	-0.04837	-0.006104	-0.00061
48.691	0.021667	0.039368	0.063019	0.00946	-0.073547	-0.001831	-0.037079	0.005798	0.018616	-0.017242	-0.018158	-0.005341	0.02594	-0.11368	-0.014801	0.046539	-0.007629	-0.11795	-0.3688	0.26001	-0.11612	0.040436	-0.68985	-0.43137	0.24048	0.00885	0.14801	-0.00351	0.068512	-0.47363	0.000153	0.005646
48.692	0.014496	0.042267	0.072479	-0.002289	-0.00885	-0.068512	-0.040741	0.002747	0.01358	-0.022125	-0.038757	-0.000763	0.000458	-0.14847	0.019379	0.13992	-0.016022	-0.066833	-0.32059	0.1828	-0.27771	0.061493	-0.96802	-0.15564	0.21347	0.027008	-1.059	-0.010681	0.13214	-0.51804	-0.005951	-0.001831
48.693	0.014954	0.012207	0.025635	-0.002747	0.057831	-0.044861	-0.04425	0.007019	0.029297	-0.050507	-0.028534	0.005035	-0.007935	-0.046387	0.055542	0.064392	0.04303	-0.051117	0.020447	0.088348	-0.09964	-0.055237	-0.72937	0.098572	-0.38055	0.012665	-0.99167	-0.000458	-0.038605	-0.3006	-0.000763	-0.00061
48.694	0.015106	0.004883	-0.010223	0.00351	0.051117	-0.066833	-0.027924	0.005035	0.02594	-0.062561	-0.018005	0.008087	-0.00412	-0.10498	0.058289	0.012512	0.071564	-0.12085	0.28686	0.039978	-0.011292	-0.046082	-0.33752	0.17578	-1.0077	0.011139	-0.63034	-0.016479	-0.24811	-0.177	0.001068	-0.003967
48.695	0.011444	0.010681	-0.040741	0.011749	0.039673	-0.045776	-0.03006	0.006866	0.023346	-0.039825	0.014954	0.004425	0.041962	-0.12253	0.046692	0.015106	0.031128	-0.079193	-0.18677	0.063171	0.11383	-0.050964	0.010681	0.27069	-0.46555	0.014038	-0.88592	-0.026093	-0.11154	-0.026855	-0.002441	-0.005951
48.696	0.010834	-0.023651	-0.089111	0.022278	0.04425	-0.055695	-0.032349	0.006561	0.022888	-0.028687	0.068512	-0.002594	0.03006	-0.09964	0.012665	0.00061	0.03479	-0.056458	-0.18356	0.026245	-0.12878	-0.046387	0.042572	0.13916	-0.25711	0.018463	-1.2608	0.01297	0.066223	0.024414	-0.002289	-0.000153
48.697	0.009766	0.009918	-0.12299	0.005951	0.029297	-0.045624	-0.052338	0.015411	0.027771	-0.006714	0.11749	-0.001068	0.018463	-0.066223	-0.061188	0.000916	0.003357	-0.026398	-0.071869	0.003357	-0.71228	-0.040436	-0.10422	0.020142	-0.14954	0.012207	-0.83664	0.007782	0.12283	0.041046	-0.003967	-0.000763
48.698	0.007935	0.030365	-0.15732	0.013275	0.002136	-0.02121	-0.041504	0.003052	0.023346	-0.005646	0.10346	0.000153	-0.010986	-0.081482	-0.095673	-0.007629	-0.013428	0.060883	-0.11414	0.018005	-0.48279	-0.16602	-0.007782	-0.13138	-0.013733	0.010529	-0.081177	-0.002289	-0.01297	0.055237	0.002441	0.005493
48.699	0.006866	0.048828	-0.1326	-0.005188	-0.036469	-0.014954	-0.045929	0.003357	0.028839	-0.017853	0.062103	-0.011292	-0.005798	-0.074615	-0.099945	-0.01297	-0.004578	0.07431	-0.2562	-0.017853	0.17303	-0.17456	0.056152	-0.22903	-0.029755	0.010529	0.4393	-0.008392	-0.028229	0.022125	-0.000153	0.001831
48.7	0.012054	0.00061	-0.13962	0.009155	-0.006256	-0.035248	-0.062866	0.01236	0.021362	-0.036926	0.02655	0.001526	0.026093	-0.064392	-0.072937	-0.017395	0.026855	0.063477	0.002441	-0.019531	0.36667	-0.1506	0.10101	-0.25681	-0.12772	0.005646	0.45624	-0.009155	-0.006561	0.024261	0.003052	0.001221
48.701	0.010376	-0.044403	-0.15854	0.007172	-0.001678	-0.030975	-0.045776	0.009003	0.021667	-0.033722	-0.036163	0.002289	0.035706	-0.079803	-0.029449	-0.010529	0.0177	0.086517	0.074463	-0.035706	0.26855	-0.065765	0.052948	-0.098114	-0.17868	-0.007172	0.060425	-0.009155	-0.089417	0.018158	-0.002136	-0.006104
48.702	0.017853	-0.036774	-0.10468	0.006104	-0.002899	-0.078278	-0.062714	0.001373	0.030212	-0.043793	-0.000458	0.00061	0.013123	-0.075531	0.045166	0	-0.021973	0.000916	0.037384	-0.011902	0.23086	0.062561	0.082703	0.020142	-0.11673	-0.012665	-0.082397	-0.011444	-0.097504	-0.1355	-0.000916	-0.011902
48.703	0.01297	-0.006104	-0.079803	0.018616	0.051575	-0.016937	-0.060272	0.002136	0.033722	-0.0383	0.024109	0.001068	-0.018005	-0.049591	0.14313	-0.010529	-0.080261	0.045471	-0.25894	0.004578	0.052643	0.18417	-0.071564	0.22858	-0.050659	-0.012817	-0.091553	-0.017548	-0.048676	-0.29022	-0.000153	-0.014343
48.704	0.006256	-0.075073	-0.13825	0.010529	0.016327	0.072021	-0.049286	0.006104	0.032806	-0.037689	0.009766	-0.002594	0.003357	-0.021667	0.25375	-0.009613	-0.11551	0.019684	-0.31693	-0.029602	-0.1889	0.1387	-0.34378	0.44067	0.14252	-0.016785	0.087738	-0.010071	0.008087	-0.23178	0.000763	-0.020142
